<!--?xml version="1.0" encoding="utf-8"?-->
<!-- Generator: Adobe Illustrator 18.1.1, SVG Export Plug-In . SVG Version: 6.00 Build 0)  -->

<svg version="1.1" id="_x32_" xmlns="http://www.w3.org/2000/svg" xmlns:xlink="http://www.w3.org/1999/xlink" x="0px" y="0px" viewBox="0 0 512 512" style="width: 256px; height: 256px; opacity: 1;" xml:space="preserve">
<style type="text/css">
	.st0{fill:#4B4B4B;}
</style>
<g>
	<rect x="124.843" class="st0" width="262.315" height="25.284" style="fill: rgb(75, 75, 75);"></rect>
	<path class="st0" d="M412.387,80.062c-4.216-7.372-31.608-43.19-31.608-43.19H131.221c0,0-27.392,35.818-31.608,43.19
		c-4.216,7.378-3.163,10.534-3.163,21.074c0,10.534,0,336.066,0,349.762c0,13.696,3.906,31.148,13.703,35.818
		c19.892,9.48,12.521,25.284,33.703,25.284h224.287c21.182,0,13.811-15.804,33.703-25.284c9.797-4.669,13.703-22.122,13.703-35.818
		c0-13.696,0-339.228,0-349.762C415.55,90.596,416.603,87.44,412.387,80.062z" style="fill: rgb(75, 75, 75);"></path>
</g>
</svg>
