<!--?xml version="1.0" encoding="utf-8"?-->
<!-- Generator: Adobe Illustrator 18.1.1, SVG Export Plug-In . SVG Version: 6.00 Build 0)  -->

<svg version="1.1" id="_x32_" xmlns="http://www.w3.org/2000/svg" xmlns:xlink="http://www.w3.org/1999/xlink" x="0px" y="0px" viewBox="0 0 512 512" style="width: 256px; height: 256px; opacity: 1;" xml:space="preserve">
<style type="text/css">
	.st0{fill:#4B4B4B;}
</style>
<g>
	<path class="st0" d="M469.342,397.667H44.654c-24.653,0-33.28,19.993-33.28,44.654v4.451c0,24.669,19.993,44.654,44.646,44.654
		h401.846c24.653,0,44.646-19.984,44.646-44.654v-4.451C502.513,417.66,494.012,397.667,469.342,397.667z" style="fill: rgb(75, 75, 75);"></path>
	<path class="st0" d="M447.177,373.682c22.891,0,41.448-14.765,41.448-33.004v-0.96c0-18.223-18.556-33.004-41.448-33.004H74.193
		c-22.882,0-41.439,14.782-41.439,33.004v0.96c0,18.239,18.556,33.004,41.439,33.004H447.177z" style="fill: rgb(75, 75, 75);"></path>
	<path class="st0" d="M41.672,205.52h430.534c16.376,0,25.83-8.936,25.83-25.906c0-5.787-0.518-3.156-1.478-8.878
		C483.338,91.593,381.127,20.574,256.952,20.574c-124.192,0-226.403,71.02-239.623,150.164h-0.008
		c-0.96,5.721-1.479,3.091-1.479,8.878C15.842,196.585,25.296,205.52,41.672,205.52z M392.936,91.359
		c6.573,0,11.909,5.336,11.909,11.909c0,6.572-5.336,11.909-11.909,11.909c-6.572,0-11.917-5.337-11.917-11.909
		C381.019,96.695,386.364,91.359,392.936,91.359z M333.399,52.517c6.573,0,11.901,5.336,11.901,11.901
		c0,6.589-5.328,11.926-11.901,11.926c-6.58,0-11.909-5.337-11.909-11.926C321.49,57.853,326.819,52.517,333.399,52.517z
		 M294.7,91.359c6.581,0,11.909,5.336,11.909,11.909c0,6.572-5.328,11.909-11.909,11.909c-6.572,0-11.908-5.337-11.908-11.909
		C282.791,96.695,288.128,91.359,294.7,91.359z M250.046,37.786c6.58,0,11.908,5.328,11.908,11.901c0,6.572-5.328,11.9-11.908,11.9
		c-6.573,0-11.909-5.328-11.909-11.9C238.137,43.113,243.473,37.786,250.046,37.786z M214.327,88.378
		c6.573,0,11.909,5.336,11.909,11.917c0,6.573-5.336,11.909-11.909,11.909c-6.573,0-11.909-5.336-11.909-11.909
		C202.418,93.714,207.754,88.378,214.327,88.378z M172.655,52.659c6.572,0,11.908,5.328,11.908,11.909
		c0,6.58-5.336,11.909-11.908,11.909c-6.582,0-11.909-5.329-11.909-11.909C160.746,57.987,166.073,52.659,172.655,52.659z
		 M125.018,88.378c6.581,0,11.918,5.336,11.918,11.917c0,6.573-5.336,11.909-11.918,11.909c-6.572,0-11.901-5.336-11.901-11.909
		C113.118,93.714,118.446,88.378,125.018,88.378z" style="fill: rgb(75, 75, 75);"></path>
	<path class="st0" d="M497.126,231.727c-5.244-0.008-10.213,0.793-14.706,2.288c-3.934,1.302-7.466,3.115-10.539,5.161
		c-5.378,3.582-9.37,7.749-12.686,11.508c-2.488,2.814-4.619,5.445-6.573,7.658c-2.914,3.357-5.394,5.67-7.616,7.006
		c-1.127,0.652-2.188,1.144-3.449,1.503c-1.262,0.351-2.748,0.585-4.727,0.593c-2.297-0.008-3.925-0.317-5.32-0.776
		c-1.219-0.401-2.297-0.952-3.457-1.712c-2.005-1.311-4.251-3.449-6.824-6.389c-1.937-2.188-4.05-4.793-6.505-7.616
		c-3.691-4.176-8.217-8.953-14.598-12.819c-3.174-1.929-6.799-3.574-10.791-4.702c-3.975-1.12-8.284-1.712-12.794-1.704
		c-5.236-0.008-10.205,0.793-14.698,2.288c-3.934,1.302-7.466,3.115-10.539,5.161c-5.386,3.582-9.37,7.749-12.686,11.508
		c-2.497,2.814-4.619,5.445-6.573,7.658c-2.923,3.357-5.387,5.67-7.616,7.006c-1.127,0.652-2.188,1.144-3.449,1.503
		c-1.253,0.351-2.739,0.585-4.719,0.593c-2.305-0.008-3.926-0.317-5.32-0.776c-1.227-0.401-2.304-0.952-3.465-1.712
		c-1.996-1.311-4.234-3.449-6.815-6.389c-1.938-2.188-4.042-4.793-6.505-7.599c-3.692-4.193-8.218-8.97-14.59-12.836
		c-3.182-1.929-6.798-3.574-10.79-4.702c-3.976-1.12-8.293-1.712-12.794-1.704c-5.236-0.008-10.206,0.793-14.69,2.288
		c-3.933,1.302-7.474,3.115-10.548,5.161c-5.387,3.582-9.37,7.749-12.694,11.508c-2.48,2.814-4.601,5.445-6.556,7.658
		c-2.923,3.357-5.403,5.67-7.625,7.006c-1.118,0.652-2.179,1.144-3.44,1.503c-1.278,0.351-2.748,0.585-4.727,0.593
		c-2.306-0.008-3.925-0.317-5.328-0.776c-1.211-0.401-2.296-0.952-3.44-1.712c-2.013-1.311-4.242-3.449-6.832-6.389
		c-1.937-2.188-4.042-4.793-6.505-7.599c-3.683-4.193-8.218-8.97-14.59-12.836c-3.173-1.929-6.806-3.574-10.781-4.702
		c-3.984-1.12-8.293-1.712-12.803-1.704c-5.236-0.008-10.196,0.793-14.698,2.288c-3.934,1.302-7.458,3.115-10.531,5.161
		c-5.386,3.582-9.37,7.749-12.693,11.508c-2.49,2.814-4.61,5.445-6.556,7.658c-2.923,3.357-5.404,5.67-7.617,7.006
		c-1.127,0.652-2.196,1.144-3.458,1.503c-1.26,0.351-2.739,0.585-4.718,0.593c-2.305-0.008-3.925-0.317-5.32-0.776
		c-1.22-0.401-2.296-0.952-3.449-1.712c-2.004-1.311-4.251-3.44-6.824-6.389c-1.937-2.188-4.042-4.793-6.505-7.599
		c-3.691-4.193-8.217-8.952-14.59-12.836c-3.173-1.929-6.798-3.574-10.781-4.702c-3.983-1.12-8.292-1.712-12.803-1.704
		C6.664,231.727,0,238.392,0,246.609c0,8.218,6.664,14.882,14.882,14.882c2.306,0,3.925,0.318,5.32,0.777
		c1.22,0.409,2.297,0.943,3.449,1.712c2.005,1.32,4.243,3.44,6.824,6.38c1.937,2.188,4.042,4.81,6.505,7.616
		c3.692,4.184,8.218,8.953,14.59,12.836c3.174,1.928,6.806,3.565,10.781,4.684c3.976,1.12,8.293,1.712,12.803,1.712
		c5.228,0.009,10.197-0.794,14.69-2.288c3.933-1.311,7.466-3.114,10.531-5.152c5.395-3.591,9.378-7.766,12.703-11.508
		c2.48-2.831,4.609-5.453,6.556-7.675c2.931-3.349,5.394-5.662,7.616-6.99c1.127-0.668,2.188-1.152,3.458-1.511
		c1.253-0.35,2.73-0.593,4.718-0.593c2.306,0,3.925,0.318,5.32,0.777c1.22,0.409,2.297,0.943,3.458,1.712
		c2.004,1.32,4.242,3.44,6.815,6.38c1.937,2.188,4.05,4.81,6.505,7.616c3.7,4.184,8.218,8.953,14.598,12.836
		c3.173,1.928,6.798,3.565,10.781,4.684c3.984,1.12,8.293,1.712,12.803,1.712c5.228,0.009,10.205-0.794,14.689-2.288
		c3.934-1.311,7.467-3.114,10.54-5.152c5.386-3.591,9.37-7.766,12.686-11.508c2.496-2.831,4.618-5.453,6.572-7.675
		c2.923-3.349,5.395-5.662,7.616-6.99c1.119-0.668,2.188-1.152,3.45-1.511c1.26-0.35,2.739-0.593,4.726-0.593
		c2.305,0,3.917,0.318,5.312,0.777c1.227,0.409,2.305,0.943,3.458,1.712c2.004,1.32,4.242,3.44,6.822,6.38
		c1.946,2.188,4.051,4.81,6.506,7.616c3.691,4.184,8.218,8.953,14.598,12.836c3.174,1.928,6.798,3.565,10.781,4.684
		c3.984,1.12,8.293,1.712,12.803,1.712c5.228,0.009,10.197-0.794,14.69-2.288c3.934-1.311,7.466-3.114,10.539-5.152
		c5.386-3.591,9.378-7.766,12.686-11.508c2.488-2.831,4.619-5.453,6.564-7.675c2.923-3.349,5.403-5.662,7.633-6.99
		c1.102-0.668,2.18-1.152,3.44-1.511c1.262-0.35,2.739-0.593,4.727-0.593c2.297,0,3.918,0.318,5.32,0.777
		c1.219,0.409,2.304,0.943,3.449,1.712c2.013,1.32,4.242,3.44,6.832,6.38c1.937,2.188,4.05,4.81,6.514,7.616
		c3.682,4.192,8.218,8.953,14.589,12.836c3.174,1.928,6.799,3.565,10.782,4.684c3.984,1.127,8.293,1.721,12.803,1.721
		c5.236,0,10.214-0.802,14.689-2.297c3.934-1.302,7.467-3.114,10.539-5.152c5.395-3.591,9.387-7.766,12.694-11.508
		c2.481-2.823,4.619-5.445,6.564-7.675c2.923-3.349,5.396-5.662,7.625-6.99c1.111-0.668,2.18-1.152,3.449-1.502
		c1.27-0.359,2.739-0.602,4.735-0.602c8.21,0,14.874-6.664,14.874-14.882C512,238.392,505.336,231.727,497.126,231.727z" style="fill: rgb(75, 75, 75);"></path>
</g>
</svg>
