<!--?xml version="1.0" encoding="utf-8"?-->
<!-- Generator: Adobe Illustrator 15.1.0, SVG Export Plug-In . SVG Version: 6.00 Build 0)  -->

<svg version="1.1" id="_x32_" xmlns="http://www.w3.org/2000/svg" xmlns:xlink="http://www.w3.org/1999/xlink" x="0px" y="0px" width="512px" height="512px" viewBox="0 0 512 512" style="width: 256px; height: 256px; opacity: 1;" xml:space="preserve">
<style type="text/css">

	.st0{fill:#4B4B4B;}

</style>
<g>
	<path class="st0" d="M58.75,375.563c0,11.125,9.016,20.141,20.125,20.141C90,395.703,99,386.688,99,375.563v-11.5H58.75V375.563z" style="fill: rgb(75, 75, 75);"></path>
	<path class="st0" d="M413,375.563c0,11.125,9,20.141,20.125,20.141c11.109,0,20.125-9.016,20.125-20.141v-11.5H413V375.563z" style="fill: rgb(75, 75, 75);"></path>
	<path class="st0" d="M256,149.484c-45.844,0-83,37.156-83,83s37.156,83,83,83s83-37.156,83-83S301.844,149.484,256,149.484z
		 M256,284.219c-28.563,0-51.719-23.156-51.719-51.734c0-28.563,23.156-51.719,51.719-51.719s51.719,23.156,51.719,51.719
		C307.719,261.063,284.563,284.219,256,284.219z" style="fill: rgb(75, 75, 75);"></path>
	<path class="st0" d="M473.813,146.438c0,0,12.313,2.266-10.766-3.719c-51.25-13.313-131.016-26.422-207.047-26.422
		s-155.797,13.109-207.047,26.422c-23.094,5.984-10.766,3.719-10.766,3.719C15.328,154.328,0,175.844,0,200.016v103.313
		c0,25.047,20.313,45.344,45.344,45.344H256h210.641c25.047,0,45.359-20.297,45.359-45.344V200.016
		C512,175.844,496.672,154.328,473.813,146.438z M117.781,279.406H58.875c-4.719,0-8.547-3.828-8.547-8.547
		c0-4.734,3.828-8.563,8.547-8.563h58.906c4.719,0,8.547,3.828,8.547,8.563C126.328,275.578,122.5,279.406,117.781,279.406z
		 M117.781,225.25H58.875c-4.719,0-8.547-3.828-8.547-8.547s3.828-8.547,8.547-8.547h58.906c4.719,0,8.547,3.828,8.547,8.547
		S122.5,225.25,117.781,225.25z M256,331.484c-54.594,0-99-44.406-99-99c0-54.578,44.406-99,99-99s99,44.422,99,99
		C355,287.078,310.594,331.484,256,331.484z M432.328,222.156c-9.938,0-18-8.063-18-18s8.063-18,18-18c9.953,0,18,8.063,18,18
		S442.281,222.156,432.328,222.156z" style="fill: rgb(75, 75, 75);"></path>
</g>
</svg>
