<!--?xml version="1.0" encoding="utf-8"?-->
<!-- Generator: Adobe Illustrator 18.1.1, SVG Export Plug-In . SVG Version: 6.00 Build 0)  -->

<svg version="1.1" id="_x32_" xmlns="http://www.w3.org/2000/svg" xmlns:xlink="http://www.w3.org/1999/xlink" x="0px" y="0px" viewBox="0 0 512 512" style="width: 256px; height: 256px; opacity: 1;" xml:space="preserve">
<style type="text/css">
	.st0{fill:#4B4B4B;}
</style>
<g>
	<path class="st0" d="M439.713,187.302c-9.487,0-17.172,7.696-17.172,17.18c0,9.483,7.686,17.166,17.172,17.166
		c9.484,0,17.173-7.682,17.173-17.166C456.886,194.998,449.197,187.302,439.713,187.302z" style="fill: rgb(75, 75, 75);"></path>
	<rect x="424.137" y="228.04" class="st0" width="31.152" height="81.47" style="fill: rgb(75, 75, 75);"></rect>
	<polygon class="st0" points="309.383,196.09 309.383,227.242 309.383,309.511 339.368,309.511 339.368,274.906 397.03,274.906 
		397.03,247.212 339.368,247.212 339.368,227.242 405.232,227.242 405.232,196.09 339.368,196.09 	" style="fill: rgb(75, 75, 75);"></polygon>
	<path class="st0" d="M431.85,143.378H80.15c-44.266,0-80.15,35.88-80.15,80.146v64.946c0,44.265,35.884,80.153,80.15,80.153h351.7
		c44.266,0,80.15-35.888,80.15-80.153v-64.946C512,179.258,476.116,143.378,431.85,143.378z M154.217,310.111h-28.232
		l-12.741-55.257l-12.741,55.257H72.27L44.269,196.09h32.875l10.374,50.632l12.174-50.632h27.1l12.178,50.632l10.371-50.632h32.876
		L154.217,310.111z M226.047,309.511h-31.153v-81.47h31.153V309.511z M210.47,221.648c-9.484,0-17.173-7.682-17.173-17.166
		c0-9.484,7.689-17.18,17.173-17.18c9.487,0,17.173,7.696,17.173,17.18C227.643,213.965,219.957,221.648,210.47,221.648z
		 M494.428,288.47c0,34.509-28.075,62.578-62.578,62.578H234.834c0,0,34.345-23.962,34.345-69.094c0-45.125,0-52.173,0-52.173
		c0-38.016,30.818-68.834,68.831-68.834h93.839c34.503,0,62.578,28.076,62.578,62.578V288.47z" style="fill: rgb(75, 75, 75);"></path>
</g>
</svg>
